<svg width="200" height="60" xmlns="http://www.w3.org/2000/svg"><g transform="translate(0 -20.262)"><path d="M11.17 58.524c0 .932-.622 1.553-1.554 1.553s-1.553-.62-1.553-1.553v-5.28c0-.932.62-1.553 1.553-1.553.932 0 1.553.622 1.553 1.554z" fill="#f7dd6d"/><path d="M9.616 51.69c.932 0 1.553.622 1.553 1.554v5.28c0 .932-.622 1.553-1.554 1.553" fill="#e2c447"/><g fill="#fff"><path d="M59.312 33.987c-.932 0-1.864-.31-2.796-.31-10.87 0-37.27 6.833-37.27 14.287 0 7.454 23.915 1.242 32.922 1.242.932 0 6.212 10.87 7.144 10.87z"/><path d="M34.464 41.752c0 5.28-9.318 9.318-11.492 9.318-2.174 0-3.727-4.348-3.727-9.318 0-5.28-.31-14.598 1.863-14.598 1.864 0 13.356 9.628 13.356 14.598z"/><path d="M195.353 61.32c2.174-21.12-62.43-23.916-113.057-23.916-50.317 0-72.99 6.833-75.475 23.916z"/></g><path d="M195.353 61.32c-2.795-17.083-62.43-23.916-113.057-23.916-50.317 0-72.99 6.833-75.475 23.916z" fill="#ebf4f7"/><g fill="#d1e3e8"><path d="M195.664 65.047c0 1.553-1.242 3.106-3.106 3.106H8.374c-1.553 0-3.106-1.243-3.106-3.106v-1.864c0-1.553 1.242-3.106 3.106-3.106H192.87c1.552 0 3.104.62 3.104 2.174v2.797z"/><path d="M195.664 67.532c0 1.553-1.242 2.484-2.485 2.484H7.752c-1.553 0-2.485-1.242-2.485-2.484 0-1.553 1.242-2.485 2.485-2.485H192.87c1.552-.31 2.794.932 2.794 2.485z"/></g><path d="M196.285 70.016c0 .932-.932 1.864-1.863 1.864H5.578c-.93-.31-1.863-.932-1.863-1.864 0-.93.932-1.863 1.863-1.863h189.154c.62 0 1.553.932 1.553 1.863z" fill="#8e8e8e"/><path d="M25.457 66.91c0-7.765 6.522-14.287 14.287-14.287 7.765 0 14.288 6.522 14.288 14.287"/><path d="M54.342 66.91h-.932c0-7.454-6.212-13.666-13.666-13.666-7.454 0-13.666 6.212-13.666 13.666h-1.242c0-8.075 6.522-14.908 14.908-14.908 8.076 0 14.598 6.833 14.598 14.908z" fill="#8e8e8e"/><path d="M52.48 67.532c0 7.143-5.903 12.734-12.736 12.734-7.144 0-12.734-5.9-12.734-12.734 0-7.144 5.9-12.735 12.734-12.735 6.833-.31 12.735 5.59 12.735 12.735z" fill="#203547"/><path d="M48.75 58.214c4.97 4.97 4.97 13.045 0 18.325-4.968 4.968-13.044 4.968-18.324 0" fill="#122130"/><circle cx="39.744" cy="67.532" r="8.076" fill="#ce3f00"/><path d="M45.335 61.63c3.106 3.106 3.106 8.386 0 11.492-3.106 3.106-8.386 3.106-11.492 0" fill="#b73b04"/><circle cx="39.744" cy="67.532" r="7.144" fill="#ced8dd"/><path d="M44.714 62.562c2.795 2.795 2.795 7.144 0 9.94-2.796 2.794-7.144 2.794-9.94 0" fill="#b2bbc1"/><path d="M42.85 67.532c0 1.863-1.553 3.727-3.416 3.727-1.864 0-3.417-1.865-3.417-3.728 0-1.864 1.553-3.417 3.417-3.417 1.863 0 3.416 1.553 3.416 3.417z" opacity=".2" fill="#888f91"/><path d="M42.85 67.532c0 1.863-1.553 3.416-3.416 3.416-1.864 0-3.417-1.553-3.417-3.416 0-1.864 1.553-3.417 3.417-3.417 1.863 0 3.416 1.553 3.416 3.417z" fill="#e7eff2"/><path d="M39.744 64.115c1.864 0 3.417 1.553 3.417 3.417 0 1.863-1.552 3.416-3.416 3.416" fill="#dae6ea"/><path d="M39.744 60.388h-.932c0 .932.622 1.863.932 1.863.31 0 .932-.62.932-1.862h-.932z" fill="#666e70"/><path d="M39.744 62.25c.31 0 .932-.62.932-1.862h-.932" fill="#535a5b"/><path d="M38.812 74.365h1.864c0-.932-.62-1.864-.932-1.864-.62.312-.932.933-.932 1.865z" fill="#666e70"/><path d="M40.676 74.365c0-.932-.62-1.864-.932-1.864" fill="#535a5b"/><path d="M33.843 63.183c.932.62 1.553.932 1.863.62.31-.31 0-1.24-.62-1.862l-1.243 1.243z" fill="#666e70"/><path d="M36.017 63.804c.31-.31 0-1.242-.62-1.863" fill="#535a5b"/><path d="M45.335 71.57c-.932-.622-1.553-.933-1.864-.622-.31.31 0 .932.623 1.864.31-.31.62-.31.62-.622l.622-.62z" fill="#666e70"/><path d="M44.714 72.5c.31-.31.31-.62.62-.62-.93-.62-1.552-.932-1.863-.62" fill="#535a5b"/><path d="M32.6 68.463c.932 0 1.864-.62 1.864-.93 0-.312-.62-.933-1.864-.933v1.862z" fill="#666e70"/><path d="M34.464 67.532c0-.31-.62-.932-1.864-.932v.932" fill="#535a5b"/><path d="M44.714 67.532c0 .31.62.93 1.863.93V66.6c-.93 0-1.863.31-1.863.932z" fill="#666e70"/><path d="M46.577 66.6c-.93 0-1.863.62-1.863.932" fill="#535a5b"/><path d="M33.843 71.88c.31.62.932.932 1.242 1.242.62-.932.932-1.553.62-1.863 0-.312-.93 0-1.862.62z" fill="#666e70"/><path d="M35.396 73.122c.62-.932.932-1.553.62-1.863" fill="#535a5b"/><path d="M43.782 61.94c-.62.933-.932 1.554-.62 1.864.31.31 1.24 0 1.862-.62-.31-.622-.62-.933-1.242-1.243z" fill="#666e70"/><path d="M43.782 61.94c-.62.933-.932 1.554-.62 1.864" fill="#535a5b"/><path d="M144.415 66.91c0-7.765 6.523-14.287 14.288-14.287 7.765 0 14.287 6.522 14.287 14.287"/><path d="M173.612 66.91h-1.243c0-7.454-6.213-13.666-13.667-13.666s-13.666 6.212-13.666 13.666h-1.243c0-8.075 6.523-14.908 14.91-14.908 8.074 0 14.908 6.833 14.908 14.908z" fill="#8e8e8e"/><path d="M171.437 67.532c0 7.143-5.9 12.734-12.734 12.734-7.144 0-12.735-5.9-12.735-12.734 0-7.144 5.902-12.735 12.735-12.735 7.144-.31 12.734 5.59 12.734 12.735z" fill="#203547"/><path d="M167.71 58.214c4.97 4.97 4.97 13.045 0 18.325-4.97 4.968-13.045 4.968-18.325 0" fill="#122130"/><circle cx="158.703" cy="67.532" r="8.076" fill="#ce3f00"/><path d="M164.294 61.63c3.106 3.106 3.106 8.386 0 11.492-3.106 3.106-8.387 3.106-11.493 0" fill="#b73b04"/><circle cx="158.703" cy="67.532" r="7.144" fill="#ced8dd"/><path d="M163.672 62.562c2.796 2.795 2.796 7.144 0 9.94-2.795 2.794-7.143 2.794-9.94 0" fill="#b2bbc1"/><path d="M162.12 67.532c0 1.863-1.554 3.727-3.417 3.727-1.864 0-3.417-1.865-3.417-3.728 0-1.864 1.553-3.417 3.417-3.417 1.863 0 3.416 1.553 3.416 3.417z" opacity=".2" fill="#888f91"/><path d="M162.12 67.532c0 1.863-1.554 3.416-3.417 3.416-1.864 0-3.417-1.553-3.417-3.416 0-1.864 1.553-3.417 3.417-3.417 1.863 0 3.416 1.553 3.416 3.417z" fill="#e7eff2"/><path d="M158.703 64.115c1.863 0 3.416 1.553 3.416 3.417 0 1.863-1.554 3.416-3.417 3.416" fill="#dae6ea"/><path d="M158.703 60.388h-.932c0 .932.622 1.863.933 1.863.31 0 .932-.62.932-1.862h-.932z" fill="#666e70"/><path d="M158.703 62.25c.31 0 .932-.62.932-1.862h-.932" fill="#535a5b"/><path d="M157.77 74.365h1.865c0-.932-.622-1.864-.932-1.864-.31.312-.932.933-.932 1.865z" fill="#666e70"/><path d="M159.635 74.365c0-.932-.622-1.864-.932-1.864" fill="#535a5b"/><path d="M153.112 63.183c.932.62 1.553.932 1.864.62.31-.31 0-1.24-.622-1.862-.31.31-.93.622-1.242 1.243z" fill="#666e70"/><path d="M154.976 63.804c.31-.31 0-1.242-.622-1.863" fill="#535a5b"/><path d="M164.294 71.57c-.932-.622-1.553-.933-1.864-.622-.31.31 0 .932.62 1.864.312-.31.622-.31.622-.622.31 0 .31-.31.622-.62z" fill="#666e70"/><path d="M163.672 72.5c.31-.31.31-.62.622-.62-.932-.62-1.553-.932-1.864-.62" fill="#535a5b"/><path d="M151.56 68.463c.93 0 1.863-.62 1.863-.93 0-.312-.622-.933-1.864-.933v1.862z" fill="#666e70"/><path d="M153.423 67.532c0-.31-.622-.932-1.864-.932v.932" fill="#535a5b"/><path d="M163.983 67.532c0 .31.62.93 1.864.93V66.6c-1.243 0-1.864.31-1.864.932z" fill="#666e70"/><path d="M165.536 66.6c-.932 0-1.864.62-1.864.932" fill="#535a5b"/><path d="M153.112 71.88c.31.62.932.932 1.242 1.242.622-.932.932-1.553.622-1.863-.31-.312-1.243 0-1.864.62z" fill="#666e70"/><path d="M154.354 73.122c.622-.932.932-1.553.622-1.863" fill="#535a5b"/><path d="M163.05 61.94c-.62.933-.93 1.554-.62 1.864.31.31 1.242 0 1.864-.62-.31-.622-.932-.933-1.243-1.243z" fill="#666e70"/><path d="M163.05 61.94c-.62.933-.93 1.554-.62 1.864" fill="#535a5b"/><path d="M62.418 43.305h66.468c1.553 0 3.106-1.242 3.106-3.106v-1.865c-16.152-1.553-33.234-.93-49.696-.93-11.182 0-14.287.31-22.674.93V40.2c0 1.552 1.243 3.105 2.796 3.105z" fill="#b73b04"/><path fill="#fff" d="M25.146 51.69H9.616v5.28"/><path d="M93.788 43.305s17.704-5.9 19.257-11.492c1.553-5.59.932-8.697 6.833-4.35 5.902 4.35 15.22 11.494 15.22 11.494s2.484 4.348-7.455 4.348H93.788z" fill="#ccc"/><path d="M93.788 43.305s18.325-4.038 19.878-9.63c1.553-5.59 1.243-8.074 5.902-2.483 6.212 7.765 15.22 8.075 15.22 8.075s2.484 4.35-7.455 4.35c-9.94 0-33.545-.312-33.545-.312z" fill="#ececec"/><path d="M194.732 61.01c-.31 1.552-2.174 2.484-3.727 1.863-1.553-.622-9.318-4.038-8.697-5.59.62-1.554 9.008-.312 10.56 0 1.243.31 2.175 2.173 1.864 3.726z" fill="#adc3c9"/><path d="M178.58 48.275s-9.317-5.28-35.718 1.552c0 0 19.257-5.9 26.712-5.59 7.454.62 9.007 4.038 9.007 4.038z" fill="#fff"/></g><g style="line-height:1.25" font-size="10.667" fill="#d40000" font-style="oblique" font-weight="bold" font-family="Waree"><path d="M61.28 35.603h-3.135l-.77 1.417h-2.016l4.39-7.776h2.39l1.37 7.776h-2.016zm-2.353-1.442h2.13l-.464-3.093zM66.432 37.17q-.844 0-1.26-.42-.417-.428-.417-1.22 0-.333.083-.78l.693-3.563h1.876l-.53 2.73q-.137.686-.137 1.035 0 .808.65.808.62 0 1.026-.464.406-.47.552-1.23l.563-2.88h1.865L70.26 37.02h-1.865l.162-.844q-1.01.995-2.125.995zM74.25 37.02q-.89 0-1.303-.302-.41-.302-.41-.995 0-.286.082-.73l.478-2.473h-.927l.262-1.333h.927l.322-1.657h1.864l-.323 1.657h1.922l-.26 1.333h-1.922l-.48 2.474q-.03.156-.03.27 0 .24.156.334.16.09.54.09h.96l-.262 1.332zM80.156 35.838q.318 0 .583-.12.265-.125.437-.333.177-.21.307-.453.13-.245.198-.516.073-.276.104-.5.03-.23.03-.422 0-.526-.244-.818-.24-.297-.744-.297-.38 0-.688.176-.302.178-.48.443-.176.26-.296.593-.12.328-.167.61-.04.28-.04.52 0 .526.238.823.245.292.76.292zm-2.953-.964q0-.354.062-.713.063-.364.203-.744.146-.38.354-.72.214-.343.532-.645.317-.306.703-.525.39-.224.91-.35.522-.13 1.12-.13 1.293 0 1.985.6.698.594.698 1.693 0 .297-.052.625-.047.323-.177.703-.124.38-.316.73-.193.348-.506.676-.307.328-.698.568-.39.24-.937.385-.547.146-1.188.146-1.296 0-1.994-.598-.697-.6-.697-1.698zM84.906 33.192h3.27l-.296 1.516h-3.27zM88.958 34.874q0-.442.1-.885.098-.444.296-.876.198-.433.52-.802.323-.37.74-.657.422-.286 1-.447.578-.162 1.25-.162 1.172 0 1.84.61.67.61.67 1.687 0 .344-.078.745l-.098.53h-4.36q-.01.126-.01.194 0 1.12 1.364 1.12 1.183 0 2.61-.704l-.282 1.438q-1.442.505-2.744.505-1.35 0-2.084-.587-.734-.594-.734-1.71zm4.547-1.406q.026-.125.026-.287 0-.415-.244-.655-.24-.24-.672-.24-.562 0-.958.318-.39.313-.573.865zM101.11 31.046q.843 0 1.254.427.417.427.417 1.22 0 .327-.082.775l-.693 3.552h-1.875l.526-2.72q.16-.832.16-1.134 0-.36-.155-.537-.15-.178-.52-.178-.62 0-1.026.47-.406.468-.552 1.228l-.557 2.87H96.14l1.136-5.833h1.864l-.166.854q1.015-.994 2.135-.994zM103.786 34.86q0-.31.052-.637.057-.333.188-.713.135-.38.338-.724t.526-.667q.323-.324.724-.558.406-.235.974-.375t1.23-.14q.89 0 1.73.322l-.298 1.52q-.646-.51-1.46-.51-.462 0-.832.16-.37.157-.59.402-.217.24-.363.552-.146.307-.198.578-.052.266-.052.516 0 .6.35.927.353.323 1.014.323.874 0 1.656-.516l-.297 1.526q-.928.323-1.855.323-1.355 0-2.1-.598-.74-.6-.74-1.713zM115.026 31.046q.843 0 1.255.427.418.427.418 1.22 0 .327-.084.775l-.692 3.552h-1.875l.526-2.708q.16-.828.16-1.14 0-.36-.155-.537-.15-.183-.52-.183-.62 0-1.027.47-.405.468-.55 1.228l-.558 2.87h-1.865l1.573-8.104h1.864l-.604 3.125q1.016-.994 2.136-.994zM117.703 34.874q0-.442.1-.885.098-.444.296-.876.197-.433.52-.802.322-.37.74-.657.42-.286 1-.447.577-.162 1.25-.162 1.17 0 1.838.61.672.61.672 1.687 0 .344-.08.745l-.098.53h-4.36q-.01.126-.01.194 0 1.12 1.365 1.12 1.183 0 2.61-.704l-.282 1.438q-1.442.505-2.744.505-1.348 0-2.083-.587-.734-.594-.734-1.71zm4.547-1.406q.026-.125.026-.287 0-.415-.245-.655-.24-.24-.67-.24-.564 0-.96.318-.39.313-.572.865zm-.745-4.98l1.088 1.96h-1.02l-1.542-1.96zM127.698 32.145q.432-.526.942-.812.51-.287 1.214-.287.167 0 .51.042l-.328 1.687q-.427-.224-.922-.224-.744 0-1.213.475-.463.47-.63 1.308l-.52 2.687h-1.865l1.136-5.833h1.865zM130.198 34.874q0-.442.1-.885.098-.444.295-.876.198-.433.52-.802.324-.37.74-.657.423-.286 1-.447.58-.162 1.25-.162 1.173 0 1.84.61.67.61.67 1.687 0 .344-.077.745l-.1.53h-4.358q-.01.126-.01.194 0 1.12 1.364 1.12 1.182 0 2.61-.704l-.282 1.438q-1.443.505-2.745.505-1.35 0-2.083-.587-.734-.594-.734-1.71zm4.547-1.406q.026-.125.026-.287 0-.415-.244-.655-.24-.24-.672-.24-.563 0-.958.318-.39.313-.573.865zM139.672 35.932q.302 0 .53-.047.23-.047.355-.12.13-.073.208-.172.084-.104.105-.188.026-.088.026-.187 0-.193-.188-.292-.187-.1-.66-.156l-.32-.042q-.978-.125-1.457-.432-.473-.312-.473-.974 0-1.078.74-1.677.74-.6 2.244-.6 1.017 0 2.256.324l-.276 1.416q-1.1-.5-2.11-.5-.66 0-.916.187-.25.188-.25.438 0 .183.182.277.188.093.625.16l.32.048q1.176.177 1.64.49.468.307.468.9 0 .324-.067.62-.062.292-.27.63-.208.334-.542.574-.328.238-.916.4-.59.16-1.365.16-1.16 0-2.39-.363l.275-1.417q1 .542 2.23.542z" style="-inkscape-font-specification:'Waree Bold Oblique'"/></g></svg>