<svg width="30" height="30" xmlns="http://www.w3.org/2000/svg"><!--! Font Awesome Pro 6.2.0 by @fontawesome - https://fontawesome.com License - https://fontawesome.com/license (Commercial License) Copyright 2022 Fonticons, Inc.--><path d="M15.99 7.95c-.27-.286-.644-.45-1.036-.45-.452.018-.827.17-1.038.457l-5.112 5.625c-.378.416-.472 1.008-.244 1.518.223.51.727.837 1.23.837h3.282l.052 5.156c0 .777.63 1.407 1.407 1.407h.938c.777 0 1.354-.63 1.354-1.407v-5.156h3.28c.56 0 1.065-.33 1.29-.843.223-.512.122-1.108-.257-1.518zM15 0C6.715 0 0 6.715 0 15s6.715 15 15 15 15-6.715 15-15S23.285 0 15 0zm0 27.188C8.28 27.188 2.813 21.72 2.813 15 2.813 8.28 8.28 2.813 15 2.813c6.72 0 12.188 5.467 12.188 12.187S21.72 27.188 15 27.188z" fill="#fffdee"/></svg>